<svg xmlns="http://www.w3.org/2000/svg" viewBox="0 0 185.32 158.57"><defs><style>.cls-1,.cls-2,.cls-3,.cls-5,.cls-6,.cls-7,.cls-8{fill:none;stroke:#707070;stroke-miterlimit:10;}.cls-1,.cls-2,.cls-5,.cls-6{stroke-linecap:round;}.cls-2,.cls-8{stroke-width:0.75px;}.cls-4{fill:#707070;}.cls-5,.cls-7{stroke-width:0.5px;}.cls-6{stroke-width:0.25px;}</style></defs><title>Asset 4</title><g id="Layer_2" data-name="Layer 2"><g id="Layer_1-2" data-name="Layer 1"><path class="cls-1" d="M24.52,64.5A68.57,68.57,0,0,1,71.26,12.81"/><path class="cls-2" d="M30.49,62.44A60.35,60.35,0,0,1,71.6,17"/><path class="cls-1" d="M64.29,141a68.68,68.68,0,0,1-36.48-37.91"/><path class="cls-2" d="M64.74,137.18a62.49,62.49,0,0,1-33.16-34.47"/><path class="cls-1" d="M153.74,107a68.65,68.65,0,0,1-42.34,36.74"/><path class="cls-2" d="M149.66,106.64A62.23,62.23,0,0,1,111.27,140"/><path class="cls-1" d="M117.84,14.93a68.63,68.63,0,0,1,39.82,45.12"/><path class="cls-2" d="M118,19.56a61,61,0,0,1,35.38,40.08"/><path class="cls-3" d="M115.89,105.27l-15-34.66a16,16,0,1,0-21-.48L65.44,105.27Z"/><path class="cls-3" d="M74.32,57.62c-6.75,0-10.51,5-10.51,11.76a12.17,12.17,0,0,0,4,9L56.74,105.27h38.6"/><path class="cls-3" d="M87.56,105.27h38.59L114.7,78.75a12.22,12.22,0,0,0-7.85-21.6"/><circle class="cls-3" cx="83.18" cy="135.58" r="13.06"/><polyline class="cls-3" points="93.9 128.13 104.49 128.34 103.92 158.06 83.2 157.66 83.56 148.19"/><line class="cls-1" x1="82.94" y1="126.05" x2="82.73" y2="136.58"/><line class="cls-1" x1="89.05" y1="136.7" x2="82.73" y2="136.58"/><line class="cls-1" x1="102.76" y1="135.91" x2="96.45" y2="135.79"/><line class="cls-1" x1="101.65" y1="139.05" x2="96.38" y2="138.95"/><line class="cls-1" x1="102.64" y1="142.23" x2="95.27" y2="142.09"/><line class="cls-1" x1="99.52" y1="145.09" x2="92.15" y2="145.09"/><line class="cls-1" x1="101.63" y1="147.2" x2="90.04" y2="147.2"/><line class="cls-1" x1="97.41" y1="150.36" x2="85.83" y2="150.36"/><line class="cls-1" x1="101.63" y1="152.47" x2="85.83" y2="152.47"/><path class="cls-4" d="M176.81,67.61a7.52,7.52,0,0,1,7.51,7.51V92.87a7.52,7.52,0,0,1-7.51,7.51H154.9a7.51,7.51,0,0,1-7.5-7.51V75.12a7.51,7.51,0,0,1,7.5-7.51h21.91m0-1H154.9a8.5,8.5,0,0,0-8.5,8.51V92.87a8.5,8.5,0,0,0,8.5,8.51h21.91a8.51,8.51,0,0,0,8.51-8.51V75.12a8.51,8.51,0,0,0-8.51-8.51Z"/><polyline class="cls-5" points="174.84 74.39 175.84 76.22 178.83 74.39"/><polyline class="cls-5" points="178.83 78.05 179.83 79.88 182.82 78.05"/><polyline class="cls-5" points="178.83 86.28 179.83 88.11 182.82 86.28"/><line class="cls-6" x1="155.38" y1="80.01" x2="155.38" y2="98.63"/><line class="cls-6" x1="155.38" y1="76.31" x2="155.38" y2="78.16"/><line class="cls-6" x1="155.38" y1="69.36" x2="155.38" y2="74.39"/><line class="cls-6" x1="160.37" y1="91.47" x2="160.37" y2="98.63"/><line class="cls-6" x1="160.37" y1="84" x2="160.37" y2="89.77"/><line class="cls-6" x1="160.37" y1="80.14" x2="160.37" y2="82.17"/><line class="cls-6" x1="160.37" y1="69.36" x2="160.37" y2="78.16"/><line class="cls-6" x1="164.36" y1="91.47" x2="164.36" y2="98.63"/><line class="cls-6" x1="164.36" y1="84" x2="164.36" y2="89.77"/><line class="cls-6" x1="164.36" y1="79.88" x2="164.36" y2="82.17"/><line class="cls-6" x1="164.36" y1="69.36" x2="164.36" y2="78.16"/><line class="cls-6" x1="168.35" y1="91.47" x2="168.35" y2="98.63"/><line class="cls-6" x1="168.35" y1="84" x2="168.35" y2="89.77"/><line class="cls-6" x1="168.35" y1="79.88" x2="168.35" y2="82.17"/><line class="cls-6" x1="168.35" y1="69.36" x2="168.35" y2="78.16"/><line class="cls-6" x1="172.34" y1="95.32" x2="172.34" y2="98.63"/><line class="cls-6" x1="172.34" y1="91.47" x2="172.34" y2="93.63"/><line class="cls-6" x1="172.34" y1="87.77" x2="172.34" y2="89.77"/><line class="cls-6" x1="172.34" y1="84" x2="172.34" y2="85.82"/><line class="cls-6" x1="172.34" y1="69.36" x2="172.34" y2="82.17"/><line class="cls-6" x1="177.33" y1="95.32" x2="177.33" y2="98.63"/><line class="cls-6" x1="177.33" y1="91.47" x2="177.33" y2="93.63"/><line class="cls-6" x1="177.33" y1="84" x2="177.33" y2="89.77"/><line class="cls-6" x1="177.33" y1="78.51" x2="177.33" y2="82.17"/><line class="cls-1" x1="155.88" y1="75.3" x2="149.89" y2="75.3"/><line class="cls-1" x1="175.89" y1="86.83" x2="169.9" y2="86.83"/><line class="cls-1" x1="168.85" y1="79.15" x2="154.88" y2="79.15"/><line class="cls-1" x1="177.83" y1="82.99" x2="156.87" y2="82.99"/><line class="cls-1" x1="178.83" y1="90.67" x2="159.87" y2="90.67"/><line class="cls-1" x1="179.83" y1="94.52" x2="169.85" y2="94.52"/><rect class="cls-7" x="82.88" y="0.25" width="12.01" height="4.29"/><line class="cls-2" x1="79.44" y1="7.11" x2="94.03" y2="7.11"/><line class="cls-2" x1="82.45" y1="24.27" x2="93.6" y2="24.27"/><path class="cls-1" d="M95.31,30.27h-16a2.39,2.39,0,0,1-2.4-2.39V4.36A2.39,2.39,0,0,1,79.27,2h2.34"/><path class="cls-2" d="M96.36,2h2.13a2.39,2.39,0,0,1,2.4,2.39l-.32,14.32"/><line class="cls-2" x1="80.73" y1="10.54" x2="95.31" y2="10.54"/><line class="cls-2" x1="79.02" y1="13.97" x2="93.6" y2="13.97"/><line class="cls-2" x1="81.59" y1="16.55" x2="98.74" y2="16.55"/><line class="cls-2" x1="79.87" y1="19.98" x2="91.02" y2="19.98"/><line class="cls-2" x1="79.87" y1="22.55" x2="91.02" y2="22.55"/><rect class="cls-8" x="103.53" y="7.77" width="3.69" height="21.53" rx="0.59" ry="0.59" transform="matrix(0.84, 0.55, -0.55, 0.84, 27.27, -54.59)"/><line class="cls-2" x1="108.45" y1="10.84" x2="111.27" y2="12.68"/><polyline class="cls-2" points="98.21 26.46 97.72 30.25 100.99 28.27"/><path class="cls-8" d="M97.82,28.59l1.12.74Z"/><line class="cls-2" x1="109.12" y1="9.42" x2="112.21" y2="11.43"/><path class="cls-3" d="M37.24,92.71a2.54,2.54,0,0,0,2.54-2.54V73.65a2.55,2.55,0,0,0-2.54-2.55H18l-.75-2.59a1.15,1.15,0,0,0-1.11-.84H6.39v2"/><path class="cls-3" d="M34.29,73.07H15.09l-.74-2.6a1.17,1.17,0,0,0-1.12-.84H3.45v2h6.84a1.16,1.16,0,0,1,1.11.84L12.14,75H31.35a2.54,2.54,0,0,1,2.54,2.54V94.09a2.71,2.71,0,0,1-.07.58h.47a2.54,2.54,0,0,0,2.54-2.54V75.61A2.54,2.54,0,0,0,34.29,73.07Z"/><path class="cls-3" d="M3.45,71.6H.5V94.09A2.55,2.55,0,0,0,3,96.64H31.35a2.55,2.55,0,0,0,2.47-2"/><path class="cls-3" d="M33.82,94.67a2.71,2.71,0,0,0,.07-.58V77.57A2.54,2.54,0,0,0,31.35,75H12.14l-.74-2.59a1.16,1.16,0,0,0-1.11-.84"/></g></g></svg>