<svg xmlns="http://www.w3.org/2000/svg" viewBox="0 0 190.49 153.29"><defs><style>.cls-1,.cls-2,.cls-3,.cls-5,.cls-6{fill:none;stroke:#707070;stroke-miterlimit:10;}.cls-2{stroke-width:0.75px;}.cls-3,.cls-6{stroke-width:0.5px;}.cls-4{fill:#707070;}.cls-5{stroke-width:0.25px;}.cls-6{stroke-linecap:round;}</style></defs><title>Asset 2</title><g id="Layer_2" data-name="Layer 2"><g id="Layer_1-2" data-name="Layer 1"><polygon class="cls-1" points="105.4 148.68 109.38 127.5 75.61 127.5 78.59 148.68 55.75 148.68 55.75 150.5 127.25 150.5 127.25 148.68 105.4 148.68"/><path class="cls-1" d="M145.52,127.5H12.5a12,12,0,0,1-12-12V12.5a12,12,0,0,1,12-12h161a12,12,0,0,1,12,12v62"/><polyline class="cls-2" points="145.25 120 10.25 119.5 10.25 9.5 174.25 9.5 174.75 74.5"/><path class="cls-3" d="M22.77,112.5A6.52,6.52,0,0,1,16.25,106V23a6.52,6.52,0,0,1,6.52-6.52h141A6.52,6.52,0,0,1,170.25,23V74.5"/><line class="cls-3" x1="16.25" y1="26" x2="170.25" y2="26"/><circle class="cls-4" cx="22.25" cy="21.5" r="1.5"/><circle class="cls-3" cx="28.25" cy="21.5" r="1.5"/><circle class="cls-3" cx="34.25" cy="21.5" r="1.5"/><path class="cls-4" d="M161.75,32V43h-136V32h136m.5-.5h-137v12h137v-12Z"/><polyline class="cls-3" points="145.52 112.5 24.75 112.5 24.75 100.5 145.52 100.5"/><path class="cls-4" d="M116.75,47V97h-91V47h91m.5-.5h-92v51h92v-51Z"/><polyline class="cls-3" points="145.52 97.5 121.25 97.5 121.25 46.5 162.25 46.5 162.25 74.5"/><rect class="cls-4" x="28.25" y="34.5" width="20" height="5" rx="2.5" ry="2.5"/><path class="cls-4" d="M151.75,51a2,2,0,0,1,0,4h-23a2,2,0,0,1,0-4h23m0-.5h-23a2.5,2.5,0,0,0,0,5h23a2.5,2.5,0,0,0,0-5Z"/><path class="cls-4" d="M151.75,70a2,2,0,0,1,0,4h-23a2,2,0,0,1,0-4h23m0-.5h-23a2.5,2.5,0,0,0,0,5h23a2.5,2.5,0,0,0,0-5Z"/><path class="cls-3" d="M145.52,93.5H128.75a2.5,2.5,0,0,1-2.5-2.5h0a2.5,2.5,0,0,1,2.5-2.5h16.77"/><rect class="cls-4" x="29.25" y="50.5" width="19" height="1" rx="0.5" ry="0.5"/><rect class="cls-4" x="83.75" y="108.5" width="19" height="1" rx="0.5" ry="0.5"/><rect class="cls-4" x="29.25" y="53.5" width="83" height="1" rx="0.5" ry="0.5"/><rect class="cls-4" x="29.25" y="56.5" width="85" height="1" rx="0.5" ry="0.5"/><rect class="cls-4" x="29.25" y="64.5" width="19" height="1" rx="0.5" ry="0.5"/><rect class="cls-4" x="29.25" y="67.5" width="82" height="1" rx="0.5" ry="0.5"/><rect class="cls-4" x="29.25" y="70.5" width="85" height="1" rx="0.5" ry="0.5"/><rect class="cls-4" x="29.25" y="78.5" width="19" height="1" rx="0.5" ry="0.5"/><rect class="cls-4" x="29.25" y="81.5" width="51" height="1" rx="0.5" ry="0.5"/><rect class="cls-4" x="29.25" y="84.5" width="83" height="1" rx="0.5" ry="0.5"/><rect class="cls-4" x="29.25" y="87.5" width="76" height="1" rx="0.5" ry="0.5"/><rect class="cls-4" x="29.25" y="90.5" width="81" height="1" rx="0.5" ry="0.5"/><rect class="cls-4" x="29.25" y="93.5" width="51" height="1" rx="0.5" ry="0.5"/><path class="cls-3" d="M145.52,119V77.2a2.7,2.7,0,0,1,2.71-2.7H173.7"/><path class="cls-3" d="M173.7,74.5h13.84a2.7,2.7,0,0,1,2.7,2.7v73.14a2.7,2.7,0,0,1-2.7,2.7H148.23a2.7,2.7,0,0,1-2.71-2.7V119"/><path class="cls-4" d="M168.43,144.83a2.89,2.89,0,1,1-2.88,2.88,2.89,2.89,0,0,1,2.88-2.88m0-.5a3.39,3.39,0,1,0,3.39,3.38,3.38,3.38,0,0,0-3.39-3.38Z"/><rect class="cls-4" x="161.66" y="80.02" width="12.04" height="1.5" rx="0.5" ry="0.5"/><path class="cls-4" d="M183.73,85V142.7h-32.1V85h32.1m.5-.5h-33.1V143.2h33.1V84.53Z"/><polyline class="cls-5" points="176.25 90.5 182.25 90.5 182.25 106.5 153.25 106.5 153.25 90.5 159.25 90.5"/><rect class="cls-5" x="153.25" y="108" width="15" height="16"/><rect class="cls-5" x="170.25" y="108" width="12" height="16"/><rect class="cls-5" x="153.25" y="125.5" width="29" height="16"/><rect class="cls-5" x="159.25" y="85.5" width="17" height="7"/><line class="cls-6" x1="163.75" y1="94" x2="171.75" y2="94"/><line class="cls-6" x1="158.75" y1="96.25" x2="177.25" y2="96.25"/><line class="cls-6" x1="158.75" y1="98.25" x2="177.25" y2="98.25"/><line class="cls-6" x1="158.75" y1="100.25" x2="177.25" y2="100.25"/><line class="cls-6" x1="160.75" y1="103.38" x2="174.25" y2="103.38"/></g></g></svg>