<svg xmlns="http://www.w3.org/2000/svg" viewBox="0 0 171 140"><defs><style>.cls-1,.cls-3,.cls-4,.cls-8{fill:none;stroke:#707070;stroke-miterlimit:10;}.cls-12,.cls-2,.cls-5,.cls-6,.cls-7,.cls-9{fill:#707070;}.cls-3{stroke-width:0.5px;}.cls-4,.cls-8{stroke-linecap:round;}.cls-5{font-size:16px;}.cls-12,.cls-5,.cls-6,.cls-7,.cls-9{font-family:MyriadPro-Regular, Myriad Pro;}.cls-6{font-size:11px;}.cls-7{font-size:10px;}.cls-8{stroke-width:0.75px;}.cls-9{font-size:6px;}.cls-10{letter-spacing:0em;}.cls-11{letter-spacing:0em;}.cls-12{font-size:9px;}.cls-13{letter-spacing:0em;}.cls-14{letter-spacing:0.02em;}</style></defs><title>Asset 5</title><g id="Layer_2" data-name="Layer 2"><g id="Layer_1-2" data-name="Layer 1"><line class="cls-1" x1="0.5" y1="11.69" x2="170.5" y2="11.69"/><circle class="cls-2" cx="8.7" cy="6.51" r="2.2"/><circle class="cls-3" cx="17.5" cy="6.51" r="2.2"/><circle class="cls-3" cx="26.3" cy="6.51" r="2.2"/><path class="cls-4" d="M14.25,121.5H8.79A8.29,8.29,0,0,1,.5,113.21V8.79A8.29,8.29,0,0,1,8.79.5H162.21a8.29,8.29,0,0,1,8.29,8.29V113.21a8.29,8.29,0,0,1-8.29,8.29"/><text class="cls-5" transform="translate(6.74 39.98) scale(0.88 1)">&lt;</text><text class="cls-5" transform="translate(74.65 78.62) rotate(180) scale(0.88 1)">&lt;</text><text class="cls-6" transform="translate(58.74 86.36) scale(1.14 1)">/</text><rect class="cls-2" x="10.75" y="45.08" width="48.25" height="1" rx="0.5" ry="0.5"/><rect class="cls-2" x="10.75" y="56.67" width="64.25" height="1.08" rx="0.5" ry="0.5"/><rect class="cls-2" x="10.75" y="68.41" width="48.25" height="1" rx="0.5" ry="0.5"/><rect class="cls-2" x="10.75" y="80.08" width="41.25" height="1" rx="0.5" ry="0.5"/><rect class="cls-2" x="100.75" y="48.08" width="48.25" height="1" rx="0.5" ry="0.5"/><rect class="cls-2" x="100.75" y="59.75" width="48.25" height="1" rx="0.5" ry="0.5"/><rect class="cls-2" x="100.75" y="71.41" width="48.25" height="1" rx="0.5" ry="0.5"/><text class="cls-5" transform="translate(131.93 39.51) scale(0.88 1)">{</text><text class="cls-5" transform="translate(93.55 88.46) scale(1.05 1)">}</text><text class="cls-7" transform="translate(153.49 49.9) scale(1.05 1)">;</text><text class="cls-7" transform="translate(153.49 61.9) scale(1.05 1)">;</text><text class="cls-7" transform="translate(153.49 73.9) scale(1.05 1)">;</text><path class="cls-8" d="M82.5,90.87V29.76a6.26,6.26,0,0,0-6.26-6.26H28.5s-1.88-6-4.2-6H5.5v12h0c0,.09,0,.17,0,.26v83.48a6.26,6.26,0,0,0,6.26,6.26h2.49"/><path class="cls-8" d="M161.68,119a6.26,6.26,0,0,0,3.82-5.77V29.76a6.26,6.26,0,0,0-6.26-6.26H111.5s-1.88-6-4.2-6H88.5v12h0c0,.09,0,.17,0,.26V91.12"/><text class="cls-9" transform="translate(9.88 24) scale(0.88 1)">.<tspan class="cls-10" x="1.24" y="0">h</tspan><tspan class="cls-11" x="4.55" y="0">tml</tspan></text><text class="cls-9" transform="translate(95.88 24) scale(0.88 1)">.css</text><rect class="cls-2" x="20" y="34" width="32" height="4" rx="2" ry="2"/><rect class="cls-2" x="94" y="34" width="32" height="4" rx="2" ry="2"/><path class="cls-4" d="M55.5,109.83V105.5H48A3.51,3.51,0,0,1,44.5,102V93.5H21A3.51,3.51,0,0,0,17.5,97v39A3.51,3.51,0,0,0,21,139.5H52A3.51,3.51,0,0,0,55.5,136v-5.32"/><line class="cls-4" x1="44.5" y1="93.5" x2="55.5" y2="105.5"/><path class="cls-4" d="M104.5,109.83V105.5H97A3.51,3.51,0,0,1,93.5,102V93.5H70A3.51,3.51,0,0,0,66.5,97v39A3.51,3.51,0,0,0,70,139.5h31A3.51,3.51,0,0,0,104.5,136V130.5"/><line class="cls-4" x1="93.5" y1="93.5" x2="104.5" y2="105.5"/><path class="cls-4" d="M155.5,109.83V105.5H148A3.51,3.51,0,0,1,144.5,102V93.5H121A3.51,3.51,0,0,0,117.5,97v39A3.51,3.51,0,0,0,121,139.5h31A3.51,3.51,0,0,0,155.5,136v-6.07"/><line class="cls-4" x1="144.5" y1="93.5" x2="155.5" y2="105.5"/><rect class="cls-1" x="31.5" y="113.5" width="28" height="15" rx="3.64" ry="3.64"/><rect class="cls-1" x="80.5" y="113.5" width="28" height="15" rx="3.64" ry="3.64"/><rect class="cls-1" x="131.5" y="112.5" width="28" height="15" rx="3.64" ry="3.64"/><text class="cls-12" transform="translate(36.38 124.5) scale(0.88 1)">HTML</text><text class="cls-12" transform="translate(88.38 124.5) scale(0.88 1)">CSS</text><text class="cls-12" transform="translate(134.38 122.5) scale(0.88 1)">j<tspan class="cls-13" x="2.19" y="0">Q</tspan><tspan x="8.41" y="0">ue</tspan><tspan class="cls-14" x="17.88" y="0">r</tspan><tspan x="21.05" y="0">y</tspan></text></g></g></svg>