<svg xmlns="http://www.w3.org/2000/svg" xmlns:xlink="http://www.w3.org/1999/xlink" viewBox="0 0 302 303.08"><defs><style>.cls-1,.cls-4,.cls-5,.cls-6{fill:none;}.cls-2{fill:#858d85;}.cls-3,.cls-7,.cls-9{fill:#fff;}.cls-4,.cls-6{stroke:#858d85;stroke-miterlimit:10;}.cls-4,.cls-5{stroke-linecap:round;}.cls-4,.cls-5,.cls-6{stroke-width:2px;}.cls-5{stroke:#fff;stroke-linejoin:round;}.cls-7{font-size:36px;}.cls-7,.cls-9{font-family:Roboto-Regular, Roboto;}.cls-8{fill:url(#linear-gradient);}.cls-9{font-size:20px;}</style><linearGradient id="linear-gradient" x1="99.13" y1="184.92" x2="203.99" y2="184.92" gradientUnits="userSpaceOnUse"><stop offset="0" stop-color="#fff"/><stop offset="1"/></linearGradient></defs><title>Asset 1</title><g id="Layer_2" data-name="Layer 2"><g id="Layer_1-2" data-name="Layer 1"><path class="cls-1" d="M151,11.54,290.5,152l-140,140"/><path class="cls-2" d="M151,292.54v-280L11.5,152Z"/><path class="cls-3" d="M151,12.54v280L290.5,153Z"/><polygon class="cls-3" points="151 303.08 151 303.08 151 303.08 151 303.08"/><path class="cls-2" d="M299.47,152.07,151,300.54h0v2.54l151-151L151,0V2.54Z"/><path class="cls-3" d="M151,300.54h0L2.53,151,151,2.54V0L0,151,151,303.08v-2.54Z"/><polygon class="cls-3" points="151 303.08 151 303.08 151 303.08 151 303.08"/><polygon class="cls-3" points="151 300.54 151 300.54 151 300.54 151 300.54"/><polygon class="cls-3" points="151 151.54 151 300.54 151 300.54 151 151.54"/><path class="cls-4" d="M69,160.29h0Z"/><path class="cls-5" d="M69,160.29h0Z"/><line class="cls-6" x1="151" y1="160.29" x2="165" y2="160.29"/><text class="cls-7" transform="translate(72.64 142.54)">Elodi<tspan class="cls-2" x="78.77" y="0">e Lin</tspan></text><path class="cls-8" d="M110.79,176.55v9.67a4.53,4.53,0,0,1-1.27,3.29,5.07,5.07,0,0,1-3.4,1.43l-.5,0a5.34,5.34,0,0,1-3.72-1.26,4.54,4.54,0,0,1-1.41-3.46v-9.69h1.86v9.63a3.24,3.24,0,0,0,.85,2.4,3.9,3.9,0,0,0,4.86,0,3.25,3.25,0,0,0,.84-2.39v-9.64Z"/><path class="cls-8" d="M115.76,190.77h-1.88V176.55h1.88Z"/><path class="cls-8" d="M119.26,192h-1.55l5.94-15.44h1.54Z"/><path class="cls-8" d="M137.44,176.55v9.67a4.53,4.53,0,0,1-1.27,3.29,5.07,5.07,0,0,1-3.4,1.43l-.5,0a5.34,5.34,0,0,1-3.72-1.26,4.49,4.49,0,0,1-1.4-3.46v-9.69H129v9.63a3.24,3.24,0,0,0,.85,2.4,3.9,3.9,0,0,0,4.86,0,3.25,3.25,0,0,0,.84-2.39v-9.64Z"/><path class="cls-8" d="M145,182l3.4-5.45h2.21l-4.49,7,4.6,7.17h-2.23L145,185.22l-3.52,5.55H139.3l4.61-7.17-4.5-7h2.2Z"/><path class="cls-8" d="M152.59,193.6l-1-.7a4.78,4.78,0,0,0,1-2.64v-1.63h1.76v1.42a4.5,4.5,0,0,1-.48,2A4.67,4.67,0,0,1,152.59,193.6Z"/><path class="cls-8" d="M159.93,186.29l.27,1.87.4-1.69,2.81-9.92H165l2.74,9.92.39,1.72.3-1.91,2.21-9.73h1.89l-3.45,14.22h-1.71l-2.93-10.36-.22-1.09-.23,1.09-3,10.36h-1.71l-3.43-14.22h1.87Z"/><path class="cls-8" d="M178.71,191a4.63,4.63,0,0,1-3.5-1.41,5.23,5.23,0,0,1-1.35-3.77v-.33a6.34,6.34,0,0,1,.6-2.81,4.68,4.68,0,0,1,1.68-1.94,4.26,4.26,0,0,1,2.34-.69,4,4,0,0,1,3.21,1.35,5.9,5.9,0,0,1,1.14,3.89V186h-7.16a3.82,3.82,0,0,0,.91,2.53,2.9,2.9,0,0,0,2.23,1,3.19,3.19,0,0,0,1.62-.39,4.08,4.08,0,0,0,1.16-1l1.1.86A4.43,4.43,0,0,1,178.71,191Zm-.23-9.47a2.39,2.39,0,0,0-1.83.8,3.84,3.84,0,0,0-.92,2.23H181v-.14a3.42,3.42,0,0,0-.74-2.13A2.25,2.25,0,0,0,178.48,181.49Z"/><path class="cls-8" d="M193.86,185.6a6.28,6.28,0,0,1-1.11,3.89,3.56,3.56,0,0,1-3,1.47,3.69,3.69,0,0,1-3.09-1.41l-.09,1.22h-1.66v-15h1.81v5.59a3.65,3.65,0,0,1,3-1.35,3.59,3.59,0,0,1,3,1.45,6.5,6.5,0,0,1,1.09,4Zm-1.8-.2a4.84,4.84,0,0,0-.72-2.85,2.32,2.32,0,0,0-2.05-1,2.64,2.64,0,0,0-2.56,1.66v4.57a2.71,2.71,0,0,0,2.58,1.66,2.34,2.34,0,0,0,2-1A5.12,5.12,0,0,0,192.06,185.4Z"/><text class="cls-9" transform="translate(99.13 190.77)">UI/UX<tspan class="cls-2" x="52.16" y="0">,Web</tspan></text><text class="cls-9" transform="translate(111.7 213)">Desi<tspan class="cls-2" x="38.88" y="0">gner</tspan></text></g></g></svg>