<svg xmlns="http://www.w3.org/2000/svg" viewBox="0 0 316 270.13">
  <defs>
    <style>
      .cls-1, .cls-2, .cls-3, .cls-4, .cls-5, .cls-6, .cls-7 {
        fill: none;
        stroke: #707070;
      }

      .cls-1, .cls-2, .cls-6 {
        stroke-linecap: round;
      }

      .cls-1, .cls-2, .cls-3, .cls-4, .cls-6, .cls-7 {
        stroke-miterlimit: 10;
      }

      .cls-1, .cls-3 {
        stroke-width: 3px;
      }

      .cls-2, .cls-4, .cls-5 {
        stroke-width: 2px;
      }
    </style>
  </defs>
  <g id="Asset_4" data-name="Asset 4" transform="translate(-20.5 0.75)">
    <g id="Layer_1" data-name="Layer 1" transform="translate(21.5 0.25)">
      <path id="Path_26" data-name="Path 26" class="cls-1" d="M24.52,101.689A117.9,117.9,0,0,1,104.887,12.81" transform="translate(16.781 8.786)"/>
      <path id="Path_27" data-name="Path 27" class="cls-2" d="M30.49,95.132A103.769,103.769,0,0,1,101.177,17" transform="translate(20.286 11.801)"/>
      <path id="Path_28" data-name="Path 28" class="cls-1" d="M90.536,168.275A118.092,118.092,0,0,1,27.81,103.09" transform="translate(19.148 70.503)"/>
      <path id="Path_29" data-name="Path 29" class="cls-2" d="M88.6,161.98A107.449,107.449,0,0,1,31.58,102.71" transform="translate(21.084 70.229)"/>
      <path id="Path_30" data-name="Path 30" class="cls-1" d="M184.2,107a118.04,118.04,0,0,1-72.8,63.173" transform="translate(76.338 73.316)"/>
      <path id="Path_31" data-name="Path 31" class="cls-2" d="M177.28,106.64A107,107,0,0,1,111.27,164" transform="translate(76.327 73.057)"/>
      <path id="Path_32" data-name="Path 32" class="cls-1" d="M117.84,14.93a118.006,118.006,0,0,1,68.469,77.582" transform="translate(80.131 10.312)"/>
      <path id="Path_33" data-name="Path 33" class="cls-2" d="M118,19.56a104.887,104.887,0,0,1,60.834,68.916" transform="translate(81.056 13.643)"/>
      <path id="Path_34" data-name="Path 34" class="cls-3" d="M152.187,150.572l-25.792-59.6a27.511,27.511,0,1,0-36.109-.825L65.44,150.572Z" transform="translate(44.39 28.57)"/>
      <path id="Path_35" data-name="Path 35" class="cls-4" d="M86.968,57.62c-11.606,0-18.071,8.6-18.071,20.221a20.926,20.926,0,0,0,6.878,15.475L56.74,139.552h66.371" transform="translate(38.505 39.34)"/>
      <path id="Path_36" data-name="Path 36" class="cls-4" d="M87.56,139.89h66.354l-19.688-45.6a21.012,21.012,0,0,0-13.5-37.14" transform="translate(59.879 39.008)"/>
      <ellipse id="Ellipse_6" data-name="Ellipse 6" class="cls-4" cx="22.456" cy="22.456" rx="22.456" ry="22.456" transform="translate(118.046 207.002)"/>
      <path id="Path_37" data-name="Path 37" class="cls-2" d="M104.922,128.689h14.885l-.98,51.1L83.2,179.1V165.677" transform="translate(57.082 88.32)"/>
      <line id="Line_10" data-name="Line 10" class="cls-2" x1="0.361" y2="18.106" transform="translate(139.703 213.071)"/>
      <line id="Line_11" data-name="Line 11" class="cls-2" x1="10.867" y1="0.206" transform="translate(139.645 231.177)"/>
      <line id="Line_12" data-name="Line 12" class="cls-2" x1="10.85" y1="0.206" transform="translate(162.945 229.819)"/>
      <line id="Line_13" data-name="Line 13" class="cls-2" x1="9.062" y1="0.172" transform="translate(162.838 235.252)"/>
      <line id="Line_14" data-name="Line 14" class="cls-2" x1="12.672" y1="0.241" transform="translate(160.929 240.652)"/>
      <line id="Line_15" data-name="Line 15" class="cls-2" x1="12.672" transform="translate(155.631 245.81)"/>
      <line id="Line_16" data-name="Line 16" class="cls-2" x1="19.929" transform="translate(152.001 249.438)"/>
      <line id="Line_17" data-name="Line 17" class="cls-2" x1="19.911" transform="translate(144.854 254.871)"/>
      <line id="Line_18" data-name="Line 18" class="cls-2" x1="27.167" transform="translate(144.808 258.499)"/>
      <path id="Path_38" data-name="Path 38" class="cls-5" d="M148.119,81.243,198.689,66.61H161.015A14.615,14.615,0,0,0,146.4,81.243v30.52A14.615,14.615,0,0,0,161.015,126.4h37.673a14.633,14.633,0,0,0,14.633-14.633V81.243A14.633,14.633,0,0,0,198.689,66.61Z" transform="translate(100.679 45.748)"/>
      <path id="Path_39" data-name="Path 39" class="cls-2" d="M174.84,74.39l1.719,3.147L181.7,74.39" transform="translate(121.14 51.552)"/>
      <path id="Path_40" data-name="Path 40" class="cls-2" d="M178.83,78.05l1.719,3.147,5.141-3.147" transform="translate(124.011 54.11)"/>
      <path id="Path_41" data-name="Path 41" class="cls-2" d="M178.83,86.28l1.719,3.147,5.141-3.147" transform="translate(124.011 59.86)"/>
      <line id="Line_19" data-name="Line 19" class="cls-6" y2="32.016" transform="translate(262.519 135.289)"/>
      <line id="Line_20" data-name="Line 20" class="cls-6" y2="3.181" transform="translate(262.519 129.204)"/>
      <line id="Line_21" data-name="Line 21" class="cls-6" y2="8.649" transform="translate(262.519 117.368)"/>
      <line id="Line_22" data-name="Line 22" class="cls-6" y2="12.311" transform="translate(271.1 154.889)"/>
      <line id="Line_23" data-name="Line 23" class="cls-6" y2="9.921" transform="translate(271.1 142.222)"/>
      <line id="Line_24" data-name="Line 24" class="cls-6" y2="3.49" transform="translate(271.1 135.708)"/>
      <line id="Line_25" data-name="Line 25" class="cls-6" y2="15.131" transform="translate(271.1 117.331)"/>
      <line id="Line_26" data-name="Line 26" class="cls-6" y2="12.311" transform="translate(277.96 154.889)"/>
      <line id="Line_27" data-name="Line 27" class="cls-6" y2="9.921" transform="translate(277.96 142.222)"/>
      <line id="Line_28" data-name="Line 28" class="cls-6" y2="3.938" transform="translate(277.96 135.263)"/>
      <line id="Line_29" data-name="Line 29" class="cls-6" y2="15.131" transform="translate(277.96 117.331)"/>
      <line id="Line_30" data-name="Line 30" class="cls-6" y2="12.311" transform="translate(284.821 154.889)"/>
      <line id="Line_31" data-name="Line 31" class="cls-6" y2="9.921" transform="translate(284.821 142.222)"/>
      <line id="Line_32" data-name="Line 32" class="cls-6" y2="3.938" transform="translate(284.821 135.263)"/>
      <line id="Line_33" data-name="Line 33" class="cls-6" y2="15.131" transform="translate(284.821 117.331)"/>
      <line id="Line_34" data-name="Line 34" class="cls-6" y2="5.691" transform="translate(291.681 161.477)"/>
      <line id="Line_35" data-name="Line 35" class="cls-6" y2="3.714" transform="translate(291.681 154.952)"/>
      <line id="Line_36" data-name="Line 36" class="cls-6" y2="3.439" transform="translate(291.681 148.669)"/>
      <line id="Line_37" data-name="Line 37" class="cls-6" y2="3.129" transform="translate(291.681 142.267)"/>
      <line id="Line_38" data-name="Line 38" class="cls-6" y2="22.026" transform="translate(291.681 117.289)"/>
      <line id="Line_39" data-name="Line 39" class="cls-6" y2="5.691" transform="translate(300.261 161.477)"/>
      <line id="Line_40" data-name="Line 40" class="cls-6" y2="3.714" transform="translate(300.261 154.952)"/>
      <line id="Line_41" data-name="Line 41" class="cls-6" y2="9.921" transform="translate(300.261 142.222)"/>
      <line id="Line_42" data-name="Line 42" class="cls-6" y2="6.293" transform="translate(300.261 132.922)"/>
      <line id="Line_43" data-name="Line 43" class="cls-2" x1="10.3" transform="translate(253.08 127.506)"/>
      <line id="Line_44" data-name="Line 44" class="cls-2" x1="10.3" transform="translate(287.486 147.095)"/>
      <line id="Line_45" data-name="Line 45" class="cls-2" x1="24.021" transform="translate(261.66 134.047)"/>
      <line id="Line_46" data-name="Line 46" class="cls-2" x1="36.04" transform="translate(265.081 140.571)"/>
      <line id="Line_47" data-name="Line 47" class="cls-2" x1="32.601" transform="translate(270.24 153.619)"/>
      <line id="Line_48" data-name="Line 48" class="cls-2" x1="17.16" transform="translate(287.4 160.16)"/>
      <rect id="Rectangle_120" data-name="Rectangle 120" class="cls-4" width="20.651" height="7.376" transform="translate(139.842)"/>
      <line id="Line_49" data-name="Line 49" class="cls-2" x2="25.087" transform="translate(133.976 11.795)"/>
      <line id="Line_50" data-name="Line 50" class="cls-2" x2="19.172" transform="translate(139.121 41.301)"/>
      <path id="Path_42" data-name="Path 42" class="cls-2" d="M108.548,50.609H81.037A4.109,4.109,0,0,1,76.91,46.5V6.058A4.11,4.11,0,0,1,80.968,2h4.024" transform="translate(52.734 1.009)"/>
      <path id="Path_43" data-name="Path 43" class="cls-2" d="M96.36,2h3.662a4.11,4.11,0,0,1,4.127,4.11l-.55,24.623" transform="translate(66.452 1.009)"/>
      <line id="Line_51" data-name="Line 51" class="cls-2" x2="25.07" transform="translate(136.166 17.693)"/>
      <line id="Line_52" data-name="Line 52" class="cls-2" x2="25.07" transform="translate(133.264 23.591)"/>
      <line id="Line_53" data-name="Line 53" class="cls-2" x2="29.489" transform="translate(137.598 28.027)"/>
      <line id="Line_54" data-name="Line 54" class="cls-2" x2="19.172" transform="translate(134.741 33.925)"/>
      <line id="Line_55" data-name="Line 55" class="cls-2" x2="19.172" transform="translate(134.741 38.344)"/>
      <rect id="Rectangle_121" data-name="Rectangle 121" class="cls-4" width="6.37" height="37.17" rx="0.592" transform="translate(186.037 14.836) rotate(33.215)"/>
      <line id="Line_56" data-name="Line 56" class="cls-6" x2="4.849" y2="3.164" transform="translate(184.006 18.855)"/>
      <path id="Path_44" data-name="Path 44" class="cls-2" d="M98.483,27.388l-1.04,6.578,5.9-2.932" transform="translate(67.514 18.478)"/>
      <path id="Path_45" data-name="Path 45" class="cls-7" d="M0,0,2.68,2.176Z" transform="matrix(0.995, -0.105, 0.105, 0.995, 165.218, 49.521)"/>
      <line id="Line_57" data-name="Line 57" class="cls-6" x2="4.44" y2="2.749" transform="translate(185.371 16.475)"/>
      <path id="Path_46" data-name="Path 46" class="cls-4" d="M59.435,110.725a4.367,4.367,0,0,0,4.367-4.367V77.952a4.385,4.385,0,0,0-4.367-4.385H26.353l-1.29-4.453a1.977,1.977,0,0,0-1.909-1.444H6.39v3.439" transform="translate(3.738 46.612)"/>
      <path id="Path_47" data-name="Path 47" class="cls-4" d="M56.478,75.545H23.464l-1.272-4.471a2.012,2.012,0,0,0-1.926-1.444H3.45v3.439H15.211a2,2,0,0,1,1.909,1.444l1.272,4.35H51.423a4.367,4.367,0,0,1,4.367,4.367v28.457a4.66,4.66,0,0,1-.12,1h.808a4.367,4.367,0,0,0,4.367-4.367V79.912a4.367,4.367,0,0,0-4.367-4.367Z" transform="translate(1.622 47.975)"/>
      <path id="Path_48" data-name="Path 48" class="cls-4" d="M5.572,71.6H.5v38.671a4.385,4.385,0,0,0,4.3,4.385H53.545a4.385,4.385,0,0,0,4.247-3.439" transform="translate(-0.5 49.344)"/>
      <path id="Path_49" data-name="Path 49" class="cls-4" d="M50.749,111.289a4.66,4.66,0,0,0,.12-1V81.887A4.367,4.367,0,0,0,46.5,77.468H13.471L12.2,73.014A2,2,0,0,0,10.29,71.57" transform="translate(6.543 49.348)"/>
    </g>
  </g>
</svg>
