<svg xmlns="http://www.w3.org/2000/svg" xmlns:xlink="http://www.w3.org/1999/xlink" viewBox="0 0 357 268">
  <defs>
    <style>
      .cls-1 {
        fill: #707070;
      }

      .cls-2 {
        fill: #d9c94d;
      }

      .cls-3 {
        fill: #83d94d;
      }

      .cls-4 {
        fill: #d96d4d;
      }

      .cls-5 {
        fill: #eddfdf;
        font-size: 14px;
        font-family: SFProText-Regular, SF Pro Text;
      }

      .cls-6 {
        fill: none;
        stroke: #e2dcdc;
      }

      .cls-7 {
        filter: url(#Rectangle_213);
      }
    </style>
    <filter id="Rectangle_213" x="0" y="0" width="357" height="268" filterUnits="userSpaceOnUse">
      <feOffset dy="5" input="SourceAlpha"/>
      <feGaussianBlur stdDeviation="3" result="blur"/>
      <feFlood flood-opacity="0.161"/>
      <feComposite operator="in" in2="blur"/>
      <feComposite in="SourceGraphic"/>
    </filter>
  </defs>
  <g id="code" transform="translate(-1233.271 -1731)">
    <g class="cls-7" transform="matrix(1, 0, 0, 1, 1233.27, 1731)">
      <rect id="Rectangle_213-2" data-name="Rectangle 213" class="cls-1" width="339" height="250" transform="translate(9 4)"/>
    </g>
    <circle id="Ellipse_13" data-name="Ellipse 13" class="cls-2" cx="4.5" cy="4.5" r="4.5" transform="translate(1264 1744)"/>
    <circle id="Ellipse_14" data-name="Ellipse 14" class="cls-3" cx="4.5" cy="4.5" r="4.5" transform="translate(1278 1744)"/>
    <circle id="Ellipse_12" data-name="Ellipse 12" class="cls-4" cx="4.5" cy="4.5" r="4.5" transform="translate(1250 1744)"/>
    <text id="_html_html_" data-name="&lt;html&gt;



 





&lt;/html&gt; " class="cls-5" transform="translate(1264 1798)"><tspan x="0" y="0">&lt;</tspan><tspan class="cls-4" y="0">html</tspan><tspan y="0">&gt;</tspan><tspan x="0" y="16"></tspan><tspan x="0" y="32"></tspan><tspan x="0" y="48"></tspan><tspan x="0" y="64"> </tspan><tspan x="0" y="80"></tspan><tspan x="0" y="96"></tspan><tspan x="0" y="112"></tspan><tspan x="0" y="128"></tspan><tspan x="0" y="144"></tspan><tspan x="0" y="160">&lt;</tspan><tspan class="cls-4" y="160">/html</tspan><tspan y="160">&gt; </tspan></text>
    <text id="_style_" data-name="&lt;style&gt;" class="cls-5" transform="translate(1292 1814)"><tspan x="0" y="0">&lt;</tspan><tspan class="cls-2" y="0">style</tspan><tspan y="0">&gt;</tspan></text>
    <text id="_style_2" data-name="&lt;/style&gt;" class="cls-5" transform="translate(1297 1860)"><tspan x="0" y="0">&lt;/</tspan><tspan class="cls-2" y="0">style</tspan><tspan y="0">&gt;</tspan></text>
    <line id="Line_62" data-name="Line 62" class="cls-6" y2="145" transform="translate(1273.5 1801.5)"/>
    <line id="Line_63" data-name="Line 63" class="cls-6" y2="30" transform="translate(1296.5 1816.5)"/>
    <line id="Line_64" data-name="Line 64" class="cls-6" y2="60" transform="translate(1296.5 1863.5)"/>
  </g>
</svg>
